<?xml version="1.0" encoding="UTF-8"?>
<svg version="1.1" xmlns="http://www.w3.org/2000/svg" width="454" height="439">
<path d="M0 0 C4.34419062 5.88306493 5.48723212 9.69151813 5 17 C3.81764343 22.60805824 1.50111894 26.31635035 -3.0546875 29.8046875 C-8.59129237 33.20669772 -13.81184887 33.49511176 -20.06640625 32.01953125 C-24.41573463 30.50798038 -28.41191423 28.36817201 -32.48461914 26.24560547 C-45.92687075 19.32764614 -60.2002196 14.90021246 -75 12 C-76.07507813 11.77441406 -77.15015625 11.54882812 -78.2578125 11.31640625 C-116.59053274 4.48809613 -157.93579454 14.83852078 -190.20703125 36.05078125 C-198.3751276 41.75131283 -206.18857525 47.69389077 -213 55 C-213.78375 55.763125 -214.5675 56.52625 -215.375 57.3125 C-245.08022778 87.7249951 -261.29685356 127.62861924 -261.24658203 170.14038086 C-260.96557442 193.51597985 -255.23848301 216.03286453 -245 237 C-244.71463379 237.60440918 -244.42926758 238.20881836 -244.13525391 238.83154297 C-226.6527949 275.60091107 -193.27193408 303.91127407 -155.125 317.5 C-115.97148817 330.62723 -72.35096433 329.3396757 -35.00976562 311.00683594 C-34.34654297 310.67458008 -33.68332031 310.34232422 -33 310 C-31.93168945 309.46681152 -31.93168945 309.46681152 -30.84179688 308.92285156 C6.2359784 290.09201294 34.64297368 257.82580491 48 218.3125 C53.19150152 202.12425957 56.19952402 185.44096804 56.1875 168.4375 C56.18814453 167.47513428 56.18878906 166.51276855 56.18945312 165.52124023 C56.14753618 159.79433716 55.81775267 154.22922048 55 148.5625 C52.18192949 128.67264003 52.18192949 128.67264003 55.5 121.875 C59.45464805 117.32715474 62.86448588 114.43205903 68.9765625 113.58984375 C75.49648839 113.40379127 80.52563043 113.78736285 85.48754883 118.37548828 C89.98138164 123.16365819 91.33074818 127.40063299 92.3125 133.8125 C92.47000732 134.7602832 92.62751465 135.70806641 92.78979492 136.68457031 C100.69359563 188.32553026 88.12281538 241.11997281 57.52734375 283.47265625 C52.25671469 290.5730018 46.46966809 297.17701427 40.36474609 303.56787109 C39.05051533 304.94699053 37.75339339 306.34235213 36.45703125 307.73828125 C8.52551408 336.93749208 -29.08698483 353.60828097 -68 362 C-69.09441406 362.23847656 -70.18882812 362.47695313 -71.31640625 362.72265625 C-120.92249876 371.83397936 -173.78234422 358.1442143 -215 330 C-222.33533284 324.81101218 -229.19401597 319.1213071 -235.78125 313.0078125 C-237.33313242 311.60346819 -238.93948628 310.25807589 -240.58203125 308.9609375 C-244.19982939 306.02695581 -247.00577728 302.55236909 -250 299 C-250.77730469 298.09894531 -251.55460937 297.19789063 -252.35546875 296.26953125 C-258.40482876 289.16973974 -263.90917179 281.82790494 -269 274 C-269.55469971 273.15211914 -269.55469971 273.15211914 -270.12060547 272.28710938 C-283.90425336 250.97477918 -291.68285312 227.65599912 -297 203 C-297.23847656 201.90558594 -297.47695313 200.81117188 -297.72265625 199.68359375 C-306.49795931 151.90694374 -294.39588618 99.23812692 -267.46484375 59.16796875 C-257.38199685 44.58548364 -245.75075626 30.28133879 -232 19 C-230.80697266 17.97519531 -230.80697266 17.97519531 -229.58984375 16.9296875 C-170.94092999 -32.64980661 -64.34963891 -50.82268779 0 0 Z " fill="#000000" transform="translate(323,57)"/>
<path d="M0 0 C5.79017441 3.90500135 9.30703059 7.93416112 10.6875 14.8125 C11.23089337 22.7612077 8.57233385 26.82481415 3.6875 32.8125 C1.26098552 35.49040764 -1.27768203 38.04191303 -3.84326172 40.58618164 C-4.5725589 41.31737717 -5.30185608 42.04857269 -6.05325317 42.80192566 C-8.44471943 45.19707051 -10.84326523 47.58498109 -13.2421875 49.97265625 C-14.91875119 51.64802617 -16.59494356 53.32376776 -18.27078247 54.99986267 C-21.77622964 58.5037499 -25.28499687 62.00426564 -28.79638672 65.50219727 C-33.28235132 69.97117959 -37.76171249 74.4467089 -42.2388134 78.92456913 C-45.69760803 82.38309094 -49.15900976 85.83899349 -52.62128067 89.29403496 C-54.27317499 90.94276201 -55.92447747 92.59208226 -57.57516098 94.24202156 C-59.88859501 96.55327092 -62.20530266 98.86118868 -64.52294922 101.16821289 C-65.19541687 101.84113373 -65.86788452 102.51405457 -66.56072998 103.20736694 C-69.68795045 106.31380601 -72.85394023 109.31776359 -76.19676208 112.19180298 C-81.01645517 116.35886532 -85.47227979 120.86311853 -89.95385742 125.38793945 C-91.38050405 126.82175838 -92.80715269 128.2555753 -94.23387778 129.68931615 C-95.75161078 131.21539785 -97.26811193 132.74269451 -98.78432274 134.27028847 C-101.95412902 137.46333193 -105.1289629 140.65134481 -108.30476379 143.83842468 C-117.32921246 152.89617055 -126.34932574 161.95820399 -135.35913086 171.03051758 C-140.34727648 176.0531855 -145.3407633 181.07047816 -150.34025651 186.08185166 C-153.49771995 189.24740281 -156.64850694 192.4194058 -159.79452741 195.59632742 C-162.21006006 198.03162886 -164.63542171 200.45706494 -167.05932617 202.8840332 C-167.92645233 203.76351624 -168.79357849 204.64299927 -169.6869812 205.5491333 C-170.49005203 206.3495253 -171.29312286 207.1499173 -172.12052917 207.9745636 C-172.81346667 208.67156529 -173.50640417 209.36856699 -174.22033978 210.08668995 C-178.27150609 213.42847203 -182.09638103 214.10510186 -187.25 214.125 C-188.24902344 214.14175781 -189.24804688 214.15851563 -190.27734375 214.17578125 C-196.6589794 213.41195613 -200.79878583 209.76917651 -205.1784668 205.35058594 C-205.7304776 204.80543839 -206.2824884 204.26029083 -206.85122681 203.69862366 C-208.66243775 201.90562043 -210.46244161 200.10184788 -212.26171875 198.296875 C-213.52354611 197.03961219 -214.78574377 195.78272092 -216.04829407 194.52618408 C-218.68837669 191.89502067 -221.32272491 189.25827448 -223.95336914 186.61767578 C-227.31739618 183.24215874 -230.69701584 179.88275825 -234.08134747 176.52761459 C-236.6904226 173.9369253 -239.29008176 171.33694505 -241.88712502 168.73419952 C-243.12913998 167.49203165 -244.37424528 166.25294547 -245.6225338 165.01708221 C-247.36972097 163.28484825 -249.10357431 161.5402417 -250.8347168 159.79199219 C-251.3474968 159.28888016 -251.86027679 158.78576813 -252.38859558 158.26741028 C-256.93629596 153.62556868 -259.73897507 148.50098301 -259.75 141.875 C-259.52301428 135.90073589 -257.93952121 131.52532843 -253.7578125 127.20703125 C-248.59951227 123.25528622 -243.18754842 123.18707491 -236.875 123.05078125 C-228.48828259 124.84399385 -222.26170245 132.58970687 -216.4375 138.4921875 C-215.62756592 139.30495148 -214.81763184 140.11771545 -213.9831543 140.95510864 C-211.42149596 143.52787691 -208.86691684 146.10754381 -206.3125 148.6875 C-204.56687106 150.4431706 -202.82078179 152.19838364 -201.07421875 153.953125 C-196.81497533 158.23430679 -192.56150727 162.52116009 -188.3125 166.8125 C-185.05348054 165.38332967 -182.89628585 163.6419079 -180.39263916 161.12641907 C-179.24057983 159.97631599 -179.24057983 159.97631599 -178.06524658 158.80297852 C-177.2319281 157.96089844 -176.39860962 157.11881836 -175.54003906 156.2512207 C-174.65497681 155.36484421 -173.76991455 154.47846771 -172.85803223 153.56523132 C-170.9350867 151.63802036 -169.01406679 149.70909528 -167.09607697 147.77697182 C-164.05738655 144.71596685 -161.01157991 141.6621095 -157.96478271 138.60917664 C-153.13990396 133.77291683 -148.3197172 128.93201159 -143.50155997 124.08905619 C-134.89099027 115.43422919 -126.27496739 106.78484031 -117.65355849 98.14081067 C-114.63244366 95.11133768 -111.61416166 92.07907939 -108.59819841 89.04447806 C-107.16833188 87.60647878 -105.73730572 86.16964517 -104.30578613 84.73329163 C-102.56917554 82.99071132 -100.83437893 81.24632032 -99.10186768 79.49966431 C-94.92348727 75.31315759 -90.66223 71.31383057 -86.17950249 67.45603466 C-83.19909517 64.83236235 -80.42225835 62.02150002 -77.64038086 59.19042969 C-77.02622818 58.56999786 -76.4120755 57.94956604 -75.77931213 57.31033325 C-74.46116696 55.97845933 -73.14411533 54.64550239 -71.82807732 53.31154633 C-69.74134643 51.1979136 -67.6500431 49.08890792 -65.55726624 46.98126221 C-59.61253443 40.99402587 -53.67065629 35.00404513 -47.74487305 28.99804688 C-44.10683987 25.3114355 -40.45906549 21.63471065 -36.80478096 17.96421051 C-35.41968454 16.56924031 -34.03824592 15.17062795 -32.66062737 13.7682724 C-30.73467532 11.80848313 -28.79653978 9.8615477 -26.85522461 7.91699219 C-26.01415665 7.051996 -26.01415665 7.051996 -25.15609741 6.16952515 C-18.09690599 -0.83633761 -9.60093445 -3.44184443 0 0 Z " fill="#000000" transform="translate(407.3125,65.1875)"/>
</svg>
